<svg width="25" height="24" viewBox="0 0 25 24" fill="none" xmlns="http://www.w3.org/2000/svg">
<g opacity="0.5">
<path d="M15.55 12.81L7.06003 4.32003C6.96752 4.22733 6.85763 4.15378 6.73666 4.1036C6.61568 4.05342 6.486 4.02759 6.35503 4.02759C6.22406 4.02759 6.09438 4.05342 5.97341 4.1036C5.85243 4.15378 5.74255 4.22733 5.65003 4.32003L2.82003 7.15003C2.72733 7.24255 2.65378 7.35243 2.6036 7.47341C2.55342 7.59438 2.52759 7.72406 2.52759 7.85503C2.52759 7.986 2.55342 8.11568 2.6036 8.23666C2.65378 8.35763 2.72733 8.46752 2.82003 8.56003L11.31 17.05C11.7 17.44 12.33 17.44 12.72 17.05L15.55 14.22C15.6427 14.1275 15.7163 14.0176 15.7665 13.8967C15.8166 13.7757 15.8425 13.646 15.8425 13.515C15.8425 13.3841 15.8166 13.2544 15.7665 13.1334C15.7163 13.0124 15.6427 12.9025 15.55 12.81ZM14.84 17.76L18.37 21.29C18.76 21.68 19.4 21.68 19.79 21.29C20.18 20.9 20.18 20.26 19.79 19.87L16.26 16.34L14.84 17.76Z" fill="white"/>
<path d="M19 9C20.933 9 22.5 7.433 22.5 5.5C22.5 3.567 20.933 2 19 2C17.067 2 15.5 3.567 15.5 5.5C15.5 7.433 17.067 9 19 9Z" fill="white"/>
</g>
</svg>
