<svg width="16" height="16" viewBox="0 0 16 16" fill="none" xmlns="http://www.w3.org/2000/svg">
<path d="M10.3483 8.54002L4.68829 2.88002C4.62661 2.81822 4.55335 2.76919 4.4727 2.73573C4.39205 2.70228 4.3056 2.68506 4.21829 2.68506C4.13097 2.68506 4.04452 2.70228 3.96387 2.73573C3.88322 2.76919 3.80996 2.81822 3.74829 2.88002L1.86162 4.76669C1.79982 4.82836 1.75079 4.90162 1.71733 4.98227C1.68388 5.06292 1.66666 5.14938 1.66666 5.23669C1.66666 5.324 1.68388 5.41046 1.71733 5.4911C1.75079 5.57175 1.79982 5.64501 1.86162 5.70669L7.52162 11.3667C7.78162 11.6267 8.20162 11.6267 8.46162 11.3667L10.3483 9.48002C10.4101 9.41835 10.4591 9.34509 10.4926 9.26444C10.526 9.18379 10.5432 9.09733 10.5432 9.01002C10.5432 8.92271 10.526 8.83625 10.4926 8.75561C10.4591 8.67496 10.4101 8.6017 10.3483 8.54002ZM9.87495 11.84L12.2283 14.1934C12.4883 14.4534 12.915 14.4534 13.175 14.1934C13.435 13.9334 13.435 13.5067 13.175 13.2467L10.8216 10.8934L9.87495 11.84Z" fill="black"/>
<path d="M12.6484 6.00004C13.9371 6.00004 14.9818 4.95537 14.9818 3.66671C14.9818 2.37804 13.9371 1.33337 12.6484 1.33337C11.3598 1.33337 10.3151 2.37804 10.3151 3.66671C10.3151 4.95537 11.3598 6.00004 12.6484 6.00004Z" fill="black"/>
</svg>
