<svg width="16" height="16" viewBox="0 0 16 16" fill="none" xmlns="http://www.w3.org/2000/svg">
<path d="M11.8691 0.0360432C11.0051 0.201945 10.2445 0.777909 9.85944 1.56986C9.64032 2.01435 9.58398 2.27103 9.58398 2.8063C9.58398 3.2101 9.59337 3.29149 9.6685 3.53878C9.73423 3.76102 9.74362 3.82363 9.71232 3.84241C9.69041 3.85806 8.64491 4.48724 7.38655 5.24475L5.10461 6.61893L4.90115 6.43111C4.03094 5.61725 2.81328 5.42944 1.75213 5.95219C1.03218 6.30277 0.474993 6.98204 0.262137 7.76772C0.16197 8.1277 0.16197 8.81635 0.262137 9.17633C0.728542 10.8917 2.60042 11.7619 4.19684 11.0044C4.51926 10.8541 4.77281 10.6601 5.06079 10.3533L5.2893 10.1123L7.48046 11.2329C8.68247 11.8496 9.67476 12.3629 9.68102 12.3692C9.69041 12.3754 9.6685 12.485 9.63719 12.6102C9.55268 12.9389 9.55894 13.5618 9.65284 13.903C9.91578 14.8765 10.6983 15.659 11.675 15.9251C12.035 16.0253 12.7236 16.0253 13.0836 15.9251C13.8693 15.7123 14.5485 15.1551 14.8991 14.4351C15.1182 13.9906 15.1746 13.7371 15.1746 13.1987C15.1746 12.6603 15.1182 12.4067 14.8991 11.9622C14.6299 11.4144 14.1635 10.9449 13.6157 10.6788C12.4982 10.1311 11.1929 10.3721 10.3384 11.283L10.1099 11.5303L7.91869 10.4065C6.71355 9.78673 5.71814 9.27337 5.70875 9.26085C5.69623 9.24833 5.71501 9.1106 5.74944 8.95721C5.82457 8.60663 5.80891 8.13396 5.70875 7.78338C5.67431 7.65504 5.63988 7.51418 5.63675 7.47348C5.63362 7.40775 5.87465 7.25437 7.93434 6.01479L10.2351 4.6281L10.4511 4.83156C11.3307 5.66108 12.5452 5.85202 13.6157 5.32614C14.3357 4.97555 14.8929 4.29629 15.1057 3.5106C15.1621 3.30714 15.1746 3.17567 15.1746 2.8063C15.1746 2.27103 15.1182 2.01435 14.8991 1.56986C14.5485 0.849904 13.8568 0.283332 13.0836 0.0829964C12.7518 -0.00465012 12.1977 -0.0265617 11.8691 0.0360432Z" fill="black"/>
</svg>
