<svg width="16" height="16" viewBox="0 0 16 16" fill="none" xmlns="http://www.w3.org/2000/svg">
<path d="M7.10043 5.61003L10.5525 7.77803C10.5913 7.80237 10.6232 7.83537 10.6452 7.8741C10.6672 7.91283 10.6787 7.95609 10.6787 8.00003C10.6787 8.04396 10.6672 8.08722 10.6452 8.12595C10.6232 8.16468 10.5913 8.19768 10.5525 8.22203L7.09972 10.39C7.05715 10.4166 7.00773 10.4319 6.95671 10.4341C6.90569 10.4364 6.85496 10.4256 6.80992 10.4029C6.76487 10.3802 6.72719 10.3465 6.70085 10.3052C6.67452 10.264 6.66052 10.2168 6.66034 10.1687V5.83136C6.66043 5.78313 6.67441 5.73582 6.70078 5.69448C6.72715 5.65314 6.76493 5.61931 6.81009 5.5966C6.85525 5.57389 6.9061 5.56314 6.95723 5.56551C7.00836 5.56787 7.05785 5.58326 7.10043 5.61003Z" fill="black"/>
<path d="M1 2.662C1.00129 2.48692 1.07564 2.31934 1.20696 2.19548C1.33829 2.07161 1.51606 2.0014 1.70188 2H14.4489C14.8366 2 15.1508 2.29667 15.1508 2.662V13.338C15.1495 13.5131 15.0751 13.6807 14.9438 13.8045C14.8125 13.9284 14.6347 13.9986 14.4489 14H1.70188C1.51566 13.9998 1.33714 13.93 1.20553 13.8059C1.07393 13.6817 1 13.5135 1 13.338V2.662ZM2.41508 3.33333V12.6667H13.7357V3.33333H2.41508Z" fill="black"/>
</svg>
