<svg width="17" height="13" viewBox="0 0 17 13" fill="none" xmlns="http://www.w3.org/2000/svg">
<path d="M16.187 11.8174C16.187 11.9666 16.1222 12.1097 16.0068 12.2153C15.8914 12.3208 15.7348 12.3801 15.5716 12.3801H0.802396C0.639186 12.3801 0.482661 12.3208 0.367254 12.2153C0.251847 12.1097 0.187012 11.9666 0.187012 11.8174V0.562731C0.187012 0.413486 0.251847 0.270353 0.367254 0.16482C0.482661 0.0592877 0.639186 0 0.802396 0C0.965607 0 1.12213 0.0592877 1.23754 0.16482C1.35295 0.270353 1.41778 0.413486 1.41778 0.562731V8.20884L5.28701 4.66364C5.40369 4.55796 5.56126 4.49868 5.72547 4.49868C5.88969 4.49868 6.04726 4.55796 6.16393 4.66364L8.18701 6.52065L11.9332 3.09502L10.8255 2.08914C10.742 2.00778 10.6854 1.90646 10.6623 1.79692C10.6391 1.68737 10.6504 1.57408 10.6947 1.47014C10.7426 1.36826 10.822 1.28139 10.9231 1.22016C11.0242 1.15894 11.1427 1.12603 11.2639 1.12546H14.3409C14.5041 1.12546 14.6606 1.18475 14.776 1.29028C14.8914 1.39582 14.9562 1.53895 14.9562 1.68819V4.50185C14.9566 4.61295 14.921 4.72166 14.854 4.81429C14.7869 4.90692 14.6913 4.97933 14.5793 5.02238C14.5034 5.04994 14.4225 5.06426 14.3409 5.06458C14.1774 5.06395 14.0205 5.00605 13.9024 4.9028L12.8024 3.88988L8.62547 7.71645C8.5088 7.82212 8.35123 7.8814 8.18701 7.8814C8.0228 7.8814 7.86522 7.82212 7.74855 7.71645L5.72547 5.85944L1.41778 9.79856V11.2546H15.5716C15.7348 11.2546 15.8914 11.3139 16.0068 11.4194C16.1222 11.525 16.187 11.6681 16.187 11.8174Z" fill="black"/>
</svg>
