<svg width="21" height="20" viewBox="0 0 21 20" fill="none" xmlns="http://www.w3.org/2000/svg">
<path fill-rule="evenodd" clip-rule="evenodd" d="M16.1001 2C15.3269 2 14.7001 2.6268 14.7001 3.39999V15.9999C14.7001 16.7731 15.3269 17.3999 16.1001 17.3999C16.8733 17.3999 17.5001 16.7731 17.5001 15.9999V3.39999C17.5001 2.6268 16.8733 2 16.1001 2ZM9.09998 6.20001C9.09998 5.42682 9.72677 4.80002 10.5 4.80002C11.2732 4.80002 11.9 5.42682 11.9 6.20001V15.9999C11.9 16.7731 11.2732 17.3999 10.5 17.3999C9.72677 17.3999 9.09998 16.7731 9.09998 15.9999V6.20001ZM3.5 8.99993C3.5 8.22674 4.1268 7.59995 4.89999 7.59995C5.67318 7.59995 6.29998 8.22674 6.29998 8.99993V15.9999C6.29998 16.7731 5.67318 17.3999 4.89999 17.3999C4.1268 17.3999 3.5 16.7731 3.5 15.9999V8.99993Z" fill="white"/>
</svg>
