<svg width="18" height="16" viewBox="0 0 18 16" fill="none" xmlns="http://www.w3.org/2000/svg">
<path d="M13.5915 9.95302C13.3734 10.1644 13.2732 10.47 13.3229 10.7698L14.0715 14.9127C14.1346 15.2638 13.9864 15.6192 13.6925 15.8221C13.4046 16.0326 13.0214 16.0579 12.7073 15.8895L8.9779 13.9443C8.84822 13.8753 8.70423 13.8382 8.55688 13.834H8.32868C8.24953 13.8458 8.17206 13.8711 8.10133 13.9098L4.37105 15.8642C4.18664 15.9568 3.97781 15.9897 3.77319 15.9568C3.2747 15.8625 2.94209 15.3876 3.02377 14.8866L3.77319 10.7437C3.82288 10.4414 3.72267 10.1341 3.50458 9.91934L0.463941 6.97217C0.209642 6.72545 0.121227 6.35494 0.23743 6.02065C0.350265 5.6872 0.638245 5.44385 0.986012 5.38911L5.171 4.782C5.48929 4.74916 5.76885 4.55549 5.912 4.26919L7.75609 0.488388C7.79987 0.404184 7.85629 0.326715 7.9245 0.261035L8.00028 0.202092C8.03986 0.158305 8.08533 0.122097 8.13585 0.0926254L8.22763 0.0589434L8.37078 0H8.72529C9.0419 0.0328399 9.32061 0.222301 9.46629 0.505229L11.3348 4.26919C11.4695 4.54454 11.7314 4.73568 12.0337 4.782L16.2187 5.38911C16.5723 5.43964 16.8679 5.68383 16.9849 6.02065C17.0953 6.35831 17.0001 6.72881 16.7408 6.97217L13.5915 9.95302Z" fill="black"/>
</svg>
