<svg width="16" height="16" viewBox="0 0 16 16" fill="none" xmlns="http://www.w3.org/2000/svg">
<path d="M6.48682 0.0366211C6.37119 0.0897455 6.26807 0.199121 6.22432 0.314746C6.19932 0.374121 6.18994 1.43975 6.18994 3.69912V6.99287H5.15244C4.20557 6.99287 4.09932 6.99912 3.98369 7.05225C3.79307 7.13975 3.70557 7.28037 3.70557 7.496C3.70557 7.65225 3.72119 7.69287 3.81494 7.81162C3.87432 7.88662 4.69932 8.8335 5.64932 9.91787C6.83369 11.2741 7.40869 11.9054 7.48057 11.9429C7.61807 12.0054 7.76182 12.0054 7.89932 11.9429C7.97119 11.9054 8.54619 11.2741 9.73057 9.91787C10.6806 8.8335 11.5056 7.88662 11.5649 7.81162C11.6618 7.68975 11.6743 7.65537 11.6743 7.49287C11.6743 7.33662 11.6587 7.29287 11.5774 7.19287C11.4243 7.00537 11.3837 6.99912 10.2306 6.996L9.18994 6.99287L9.18369 3.65225C9.17432 0.330371 9.17432 0.308496 9.10869 0.224121C9.07432 0.177246 9.00557 0.108496 8.95869 0.0741205C8.87744 0.0116205 8.83057 0.00849628 7.72744 0.0022459C6.81807 -0.00400448 6.56182 0.0022459 6.48682 0.0366211Z" fill="black"/>
<path d="M0.196387 13.1085L0.205762 15.2273L0.287012 15.4023C0.390137 15.6242 0.558887 15.7929 0.780762 15.896L0.955762 15.9773H7.69014H14.4245L14.5995 15.896C14.8214 15.7929 14.9901 15.6242 15.0933 15.4023L15.1745 15.2273L15.1839 13.1085L15.1933 10.9929H14.1901H13.1901V12.4929V13.9929H7.69014H2.19014V12.4929V10.9929H1.19014H0.187012L0.196387 13.1085Z" fill="black"/>
</svg>
