<svg width="33" height="60" viewBox="0 0 33 60" fill="none" xmlns="http://www.w3.org/2000/svg">
<g style="mix-blend-mode:screen" opacity="0.42">
<path d="M7.78269 31.5104L2.89478 17.7958H0L6.21666 34.2865H9.34872L15.5417 17.7958H12.6943L7.78269 31.5104Z" fill="white"/>
<path d="M32.4079 37.5213C32.4079 31.4944 23.6761 33.8198 23.6761 30.0945C23.6761 28.5048 24.8862 27.7455 26.4522 27.7929C28.1606 27.8404 29.1335 28.8607 29.2284 29.9759H32.2181C31.9808 27.1523 29.7504 25.4913 26.5946 25.4913C23.2253 25.4913 20.9237 27.2946 20.9237 30.1894C20.9237 36.2637 29.6792 33.6774 29.6792 37.6637C29.6792 39.0636 28.6115 40.0839 26.7132 40.0839C24.8388 40.0839 23.8896 38.9924 23.771 37.6399H20.8762C20.8762 40.5584 23.4151 42.3617 26.7132 42.3617C30.391 42.3617 32.4079 39.989 32.4079 37.5213Z" fill="white"/>
<path fill-rule="evenodd" clip-rule="evenodd" d="M28.8165 0.680698L7.06604 60L5.20959 59.3193L26.96 0L28.8165 0.680698Z" fill="white"/>
</g>
</svg>
