<svg width="25" height="24" viewBox="0 0 25 24" fill="none" xmlns="http://www.w3.org/2000/svg">
<g opacity="0.5">
<path d="M14 0.669922C14 0.669922 14.74 3.31992 14.74 5.46992C14.74 7.52992 13.39 9.19992 11.33 9.19992C9.26 9.19992 7.7 7.52992 7.7 5.46992L7.73 5.10992C5.71 7.50992 4.5 10.6199 4.5 13.9999C4.5 18.4199 8.08 21.9999 12.5 21.9999C16.92 21.9999 20.5 18.4199 20.5 13.9999C20.5 8.60992 17.91 3.79992 14 0.669922ZM12.21 18.9999C10.43 18.9999 8.99 17.5999 8.99 15.8599C8.99 14.2399 10.04 13.0999 11.8 12.7399C13.57 12.3799 15.4 11.5299 16.42 10.1599C16.81 11.4499 17.01 12.8099 17.01 14.1999C17.01 16.8499 14.86 18.9999 12.21 18.9999Z" fill="white"/>
</g>
</svg>
