<svg width="25" height="24" viewBox="0 0 25 24" fill="none" xmlns="http://www.w3.org/2000/svg">
<path d="M14 0.670044C14 0.670044 14.74 3.32004 14.74 5.47004C14.74 7.53004 13.39 9.20004 11.33 9.20004C9.26 9.20004 7.7 7.53004 7.7 5.47004L7.73 5.11004C5.71 7.51004 4.5 10.62 4.5 14C4.5 18.42 8.08 22 12.5 22C16.92 22 20.5 18.42 20.5 14C20.5 8.61004 17.91 3.80004 14 0.670044ZM12.21 19C10.43 19 8.99 17.6 8.99 15.86C8.99 14.24 10.04 13.1 11.8 12.74C13.57 12.38 15.4 11.53 16.42 10.16C16.81 11.45 17.01 12.81 17.01 14.2C17.01 16.85 14.86 19 12.21 19Z" fill="white"/>
</svg>
